<svg width="1606" height="880" viewBox="0 0 1606 880" fill="none" xmlns="http://www.w3.org/2000/svg">
    <path d="M422.408 71.7839C454.493 79.976 471.901 91.24 474.632 105.576C477.363 119.912 465.075 135.272 437.768 151.656C420.019 161.896 400.221 177.256 378.376 197.736C356.531 218.216 342.195 228.456 335.368 228.456C325.811 228.456 312.157 237.331 294.408 255.08C276.659 272.147 266.76 286.141 264.712 297.064C261.299 310.717 265.736 328.467 278.024 350.312C288.264 367.379 296.797 377.277 303.624 380.008C311.133 382.056 322.739 379.325 338.44 371.816C349.363 365.672 355.507 360.552 356.872 356.456C358.92 351.677 355.848 346.216 347.656 340.072C340.829 334.611 337.416 330.173 337.416 326.76C342.195 324.029 357.555 322.664 383.496 322.664C410.12 322.664 440.157 324.371 473.608 327.784C507.741 330.515 527.88 333.245 534.024 335.976C548.36 343.485 556.893 353.725 559.624 366.696C562.355 378.984 558.6 389.224 548.36 397.416C537.437 406.291 528.563 409.363 521.736 406.632C506.035 400.488 467.464 406.632 406.024 425.064C344.584 442.813 311.475 457.832 306.696 470.12C303.283 478.312 304.989 486.504 311.816 494.696C319.325 502.888 338.099 518.248 368.136 540.776C427.528 585.832 475.997 625.768 513.544 660.584C534.707 681.064 566.109 701.885 607.752 723.048L689.672 765.032C700.595 770.493 706.397 777.661 707.08 786.536C708.445 795.411 705.032 804.285 696.84 813.16C692.061 818.621 685.917 821.693 678.408 822.376C670.899 823.059 657.245 822.717 637.448 821.352C605.363 818.621 575.325 813.16 547.336 804.968C527.539 798.824 511.837 791.315 500.232 782.44C489.309 772.883 467.123 750.355 433.672 714.856C395.443 673.896 359.261 638.397 325.128 608.36C291.677 578.323 272.221 565.011 266.76 568.424C262.664 570.472 260.275 575.592 259.592 583.784C259.592 595.389 254.813 613.139 245.256 637.032C235.699 660.925 226.824 678.333 218.632 689.256C187.229 728.851 164.701 753.768 151.048 764.008C138.077 773.565 112.477 782.44 74.248 790.632C41.48 798.824 21 804.285 12.808 807.016C4.616 809.064 0.520004 807.016 0.520004 800.872C0.520004 794.728 14.5147 783.805 42.504 768.104C84.1467 745.576 117.939 716.563 143.88 681.064C170.504 644.883 187.571 605.629 195.08 563.304C197.811 544.872 195.763 535.315 188.936 534.632C186.888 534.632 183.816 537.363 179.72 542.824C176.989 547.603 164.701 554.771 142.856 564.328C127.837 571.155 116.573 574.909 109.064 575.592C101.555 576.275 89.9493 574.909 74.248 571.496C57.864 568.083 42.504 560.915 28.168 549.992C14.5147 538.387 7.688 528.147 7.688 519.272C7.688 512.445 15.1973 507.667 30.216 504.936C45.9173 502.205 80.0507 489.917 132.616 468.072L211.464 434.28V401.512C211.464 378.984 207.709 364.307 200.2 357.48C193.373 350.653 189.96 345.192 189.96 341.096C189.96 336.317 203.955 319.251 231.944 289.896C260.616 260.541 274.952 243.816 274.952 239.72C274.952 234.941 265.395 234.6 246.28 238.696C224.435 242.109 206.685 241.768 193.032 237.672C180.061 232.893 168.456 222.995 158.216 207.976C145.928 188.861 140.467 175.891 141.832 169.064C143.197 162.237 153.096 157.459 171.528 154.728C191.325 151.997 230.237 135.955 288.264 106.6C346.973 76.5626 376.669 61.2026 377.352 60.52C378.717 59.8373 393.736 63.592 422.408 71.7839ZM1413.02 347.24C1419.84 340.413 1435.2 341.779 1459.1 351.336C1483.67 360.893 1501.76 372.84 1513.37 387.176C1521.56 396.051 1525.66 405.267 1525.66 414.824C1526.34 423.699 1523.61 435.987 1517.46 451.688C1512.69 463.293 1507.91 470.461 1503.13 473.192C1498.35 475.24 1486.74 476.264 1468.31 476.264C1450.56 476.264 1439.64 475.581 1435.54 474.216C1431.45 472.168 1429.4 468.072 1429.4 461.928C1429.4 452.371 1431.79 447.592 1436.57 447.592C1442.03 447.592 1443.39 445.544 1440.66 441.448C1437.93 437.352 1439.3 433.597 1444.76 430.184C1448.17 427.453 1448.51 421.309 1445.78 411.752C1443.05 402.195 1438.27 394.003 1431.45 387.176C1424.62 379.667 1419.16 371.816 1415.06 363.624C1410.97 355.432 1410.29 349.971 1413.02 347.24ZM1425.3 5.22394C1443.05 1.81061 1462.51 5.22396 1483.67 15.464C1505.52 25.0213 1525.31 39.6986 1543.06 59.496C1568.32 85.4373 1585.05 122.301 1593.24 170.088C1601.43 217.192 1605.53 295.699 1605.53 405.608C1605.53 489.576 1600.07 565.011 1589.14 631.912C1578.9 698.813 1565.59 745.917 1549.21 773.224C1539.65 788.925 1522.58 806.675 1498.01 826.472C1474.11 846.269 1452.27 860.605 1432.47 869.48C1417.45 875.624 1406.87 878.696 1400.73 878.696C1394.58 879.379 1384 876.989 1368.98 871.528C1325.98 857.875 1292.87 840.125 1269.66 818.28C1259.42 808.723 1251.22 803.261 1245.08 801.896C1239.62 799.848 1230.4 799.507 1217.43 800.872C1203.78 803.603 1194.22 804.285 1188.76 802.92C1183.98 800.872 1178.18 796.093 1171.35 788.584C1161.11 776.979 1151.55 771.176 1142.68 771.176C1137.9 771.176 1132.78 769.811 1127.32 767.08C1122.54 763.667 1119.13 760.253 1117.08 756.84C1115.71 752.744 1115.71 750.013 1117.08 748.648C1120.49 745.235 1128.69 746.259 1141.66 751.72C1155.31 756.499 1163.5 757.523 1166.23 754.792C1169.65 752.061 1168.62 745.917 1163.16 736.36C1157.7 726.12 1152.58 721 1147.8 721C1141.66 721 1126.3 728.509 1101.72 743.528C1077.14 758.547 1064.86 768.104 1064.86 772.2C1064.86 777.661 1055.3 778.685 1036.18 775.272C1019.12 773.224 1005.12 767.421 994.2 757.864C983.277 747.624 971.331 729.875 958.36 704.616C950.851 691.645 946.755 678.675 946.072 665.704C945.389 652.733 945.731 622.696 947.096 575.592C951.192 486.163 955.971 408.68 961.432 343.144C967.576 276.925 972.696 243.816 976.792 243.816C983.619 243.816 995.565 253.373 1012.63 272.488C1030.38 290.92 1041.99 306.28 1047.45 318.568C1054.27 335.635 1057.69 358.845 1057.69 388.2C1057.69 416.872 1054.27 441.107 1047.45 460.904C1037.21 488.893 1033.45 533.267 1036.18 594.024C1039.6 654.781 1046.77 688.232 1057.69 694.376C1067.93 699.155 1081.92 697.448 1099.67 689.256C1118.1 681.064 1136.19 668.435 1153.94 651.368C1167.6 637.032 1175.79 626.451 1178.52 619.624C1181.93 612.797 1183.64 600.851 1183.64 583.784C1183.64 544.189 1171.01 524.392 1145.75 524.392C1133.46 524.392 1126.64 522.344 1125.27 518.248C1124.59 514.152 1127.32 504.936 1133.46 490.6C1141.66 474.216 1160.43 456.125 1189.78 436.328C1230.06 410.387 1253.27 392.979 1259.42 384.104C1266.24 375.229 1271.02 355.773 1273.75 325.736C1275.8 290.237 1275.46 272.488 1272.73 272.488C1270 272.488 1254.98 278.632 1227.67 290.92C1201.05 303.208 1176.47 307.987 1153.94 305.256C1123.91 301.843 1109.91 297.747 1111.96 292.968C1112.64 290.92 1114.35 289.555 1117.08 288.872C1123.91 286.824 1145.07 274.877 1180.57 253.032C1216.75 230.504 1239.62 215.827 1249.18 209C1256.69 202.856 1262.49 199.443 1266.58 198.76C1271.36 197.395 1278.19 199.101 1287.06 203.88C1297.99 209.341 1305.5 219.923 1309.59 235.624C1313.69 251.325 1315.74 278.632 1315.74 317.544C1316.42 338.707 1317.44 352.36 1318.81 358.504C1320.86 363.965 1326.32 368.403 1335.19 371.816C1359.77 384.104 1357.38 412.776 1328.02 457.832C1311.64 481.725 1303.45 498.109 1303.45 506.984C1303.45 512.445 1304.81 515.859 1307.54 517.224C1310.96 517.907 1318.47 517.565 1330.07 516.2C1345.77 514.152 1362.16 516.541 1379.22 523.368C1396.29 530.195 1406.87 539.752 1410.97 552.04C1415.75 562.28 1421.55 568.424 1428.38 570.472C1435.89 572.52 1444.08 588.563 1452.95 618.6C1466.61 668.435 1479.58 693.352 1491.86 693.352C1500.06 693.352 1508.93 672.872 1518.49 631.912C1528.73 590.952 1536.58 543.507 1542.04 489.576C1546.82 437.693 1546.82 384.445 1542.04 329.832C1530.43 198.76 1519.17 119.912 1508.25 93.288C1497.33 65.9813 1472.41 54.7173 1433.5 59.496C1388.44 64.2746 1351.92 71.784 1323.93 82.024C1295.94 92.264 1263.85 110.013 1227.67 135.272C1187.39 163.261 1152.24 167.699 1122.2 148.584C1103.09 137.661 1095.92 127.421 1100.7 117.864C1102.74 113.768 1107.52 111.72 1115.03 111.72C1123.22 111.72 1138.58 107.965 1161.11 100.456C1184.32 92.264 1197.98 86.12 1202.07 82.024C1204.8 78.6107 1211.29 76.904 1221.53 76.904C1231.77 76.904 1241.33 73.832 1250.2 67.688C1259.76 60.8613 1268.97 56.424 1277.85 54.376C1287.41 51.6453 1311.98 43.112 1351.58 28.7759C1391.17 14.44 1415.75 6.58929 1425.3 5.22394ZM1401.75 587.88C1399.7 587.88 1388.44 597.779 1367.96 617.576C1348.16 636.691 1329.05 656.147 1310.62 675.944C1292.18 695.059 1283.31 704.957 1283.99 705.64C1286.72 707.688 1305.84 705.299 1341.34 698.472C1376.83 690.963 1396.97 685.501 1401.75 682.088C1405.85 680.04 1407.9 663.997 1407.9 633.96C1407.9 603.24 1405.85 587.88 1401.75 587.88ZM1260.44 615.528C1260.44 613.48 1260.1 612.115 1259.42 611.432C1259.42 610.067 1259.07 609.725 1258.39 610.408C1222.89 624.061 1205.14 636.008 1205.14 646.248C1205.14 653.075 1201.73 659.56 1194.9 665.704C1185.35 675.944 1183.98 682.771 1190.81 686.184C1194.9 686.184 1207.53 675.261 1228.7 653.416C1249.86 631.571 1260.44 618.941 1260.44 615.528Z" fill="white" />
</svg>